# xmcd
#
# Track frame offsets: 
#        150
#        12804
#        26913
#        39434
#        59815
#        72820
#        88233
#        102736
#        118143
#        138529
#        151592
#        168029
#
# Disc length: 2431 seconds
#
# Revision: 0
# Processed by: cddbd v1.5.2PL0 Copyright (c) Steve Scherf et al.
# Submitted via: ExactAudioCopy v0.99pb5
#
DISCID=a2097d0c
DTITLE=Mona McCall - Memories Love A Melody
DYEAR=2006
DGENRE=Country
TTITLE0=Sweet Lips
TTITLE1=At Least I Get To Hold Your Memory Near
TTITLE2=Till These Dreams Come True
TTITLE3=I Haven't Been Loved Since You Left
TTITLE4=Memory Number One
TTITLE5=Bandera
TTITLE6=Keeper Of My Heart
TTITLE7=The Girl Behind The Frown
TTITLE8=The Deepening Snow
TTITLE9=Five Minutes Of The Latest Blues
TTITLE10=The French Song
TTITLE11=Remind Me, Dear Lord
EXTD=
EXTT0=
EXTT1=
EXTT2=
EXTT3=
EXTT4=
EXTT5=
EXTT6=
EXTT7=
EXTT8=
EXTT9=
EXTT10=
EXTT11=
PLAYORDER=
